<svg xmlns="http://www.w3.org/2000/svg" version="1.1" xmlns:xlink="http://www.w3.org/1999/xlink" xmlns:svgjs="http://svgjs.dev/svgjs" width="2000" height="1247" viewBox="0 0 2000 1247"><g transform="matrix(1,0,0,1,-1.2121212121212466,0.504858299595071)"><svg viewBox="0 0 396 247" data-background-color="#c8c8c8" preserveAspectRatio="xMidYMid meet" height="1247" width="2000" xmlns="http://www.w3.org/2000/svg" xmlns:xlink="http://www.w3.org/1999/xlink"><g id="tight-bounds" transform="matrix(1,0,0,1,0.2400000000000091,-0.09999999999999432)"><svg viewBox="0 0 395.52 247.2" height="247.2" width="395.52"><g><svg></svg></g><g><svg viewBox="0 0 395.52 247.2" height="247.2" width="395.52"><mask id="3a9ee433-d498-4bce-b42d-19982d16e6ab"><rect width="640" height="400" fill="white"></rect><g transform="matrix(1,0,0,1,133.08342342342343,45.65405405405406)"><svg viewBox="0 0 129.35315315315313 155.89189189189187" height="155.89189189189187" width="129.35315315315313"><g><svg viewBox="0 0 129.35315315315313 155.89189189189187" height="155.89189189189187" width="129.35315315315313"><g><svg viewBox="0 0 129.35315315315313 155.89189189189187" height="155.89189189189187" width="129.35315315315313"><g id="SvgjsG1002"><svg viewBox="0 0 129.35315315315313 155.89189189189187" height="155.89189189189187" width="129.35315315315313" id="SvgjsSvg1001"><g><svg viewBox="0 0 129.35315315315313 155.89189189189187" height="155.89189189189187" width="129.35315315315313"><g transform="matrix(1,0,0,1,0,0)"><svg width="129.35315315315313" viewBox="-2.95 -39 35.849999999999994 43" height="155.89189189189187" data-palette-color="#1c1a1a"><path d="M1.05-33.9L1.05-35 27.05-35 27.55-25.1 26.65-25.1Q24.55-30.15 22.25-32.02 19.95-33.9 15.5-33.9L15.5-33.9 13.75-33.9 13.75-18.45 15.45-18.45Q17.8-18.45 19.4-20.23 21-22 21.65-25L21.65-25 22.4-25 22.4-10.2 21.55-10.2Q20.65-13.95 19.13-15.55 17.6-17.15 14.95-17.15L14.95-17.15 13.75-17.15 13.75-1.1 15.65-1.1Q20.25-1.1 23.48-3.85 26.7-6.6 27.9-10.9L27.9-10.9 28.9-10.9 28.5 0 1.05 0 1.05-1.1 4-1.1 4-33.9 1.05-33.9Z" opacity="1" transform="matrix(1,0,0,1,0,0)" fill="black" class="wordmark-text-0" id="SvgjsPath1000" stroke-width="7" stroke="black" stroke-linejoin="round"></path></svg></g></svg></g></svg></g></svg></g></svg></g></svg></g></mask><g transform="matrix(1,0,0,1,133.08342342342343,45.65405405405406)"><svg viewBox="0 0 129.35315315315313 155.89189189189187" height="155.89189189189187" width="129.35315315315313"><g><svg viewBox="0 0 129.35315315315313 155.89189189189187" height="155.89189189189187" width="129.35315315315313"><g><svg viewBox="0 0 129.35315315315313 155.89189189189187" height="155.89189189189187" width="129.35315315315313"><g id="textblocktransform"><svg viewBox="0 0 129.35315315315313 155.89189189189187" height="155.89189189189187" width="129.35315315315313" id="textblock"><g><svg viewBox="0 0 129.35315315315313 155.89189189189187" height="155.89189189189187" width="129.35315315315313"><g transform="matrix(1,0,0,1,0,0)"><svg width="129.35315315315313" viewBox="-2.95 -39 35.849999999999994 43" height="155.89189189189187" data-palette-color="#1c1a1a"><path d="M1.05-33.9L1.05-35 27.05-35 27.55-25.1 26.65-25.1Q24.55-30.15 22.25-32.02 19.95-33.9 15.5-33.9L15.5-33.9 13.75-33.9 13.75-18.45 15.45-18.45Q17.8-18.45 19.4-20.23 21-22 21.65-25L21.65-25 22.4-25 22.4-10.2 21.55-10.2Q20.65-13.95 19.13-15.55 17.6-17.15 14.95-17.15L14.95-17.15 13.75-17.15 13.75-1.1 15.65-1.1Q20.25-1.1 23.48-3.85 26.7-6.6 27.9-10.9L27.9-10.9 28.9-10.9 28.5 0 1.05 0 1.05-1.1 4-1.1 4-33.9 1.05-33.9Z" opacity="1" transform="matrix(1,0,0,1,0,0)" fill="#1c1a1a" class="wordmark-text-0" data-fill-palette-color="primary" id="text-0"></path></svg></g></svg></g></svg></g></svg></g></svg></g></svg></g><g mask="url(#3a9ee433-d498-4bce-b42d-19982d16e6ab)"><g transform="matrix(3.3580760908269194, 0, 0, 3.3580760908269194, 74.07198334657207, 1)"><svg xmlns="http://www.w3.org/2000/svg" xmlns:xlink="http://www.w3.org/1999/xlink" version="1.1" x="0" y="0" viewBox="13.167 13.491 73.666 73.018" enable-background="new 0 0 100 100" xml:space="preserve" height="73.018" width="73.666" class="icon-none" data-fill-palette-color="accent" id="none"><g fill="#333d46" data-fill-palette-color="accent"><path fill="none" d="M52.25 20.875h2.584v-2.74h2v4.74H52.25v1.555h8.25v-6.295h2v8.295H52.25V28h14v-7.448h2V30h-16v1.874h18.5v-8.322h2v10.322h-20.5v4.652h20.5v8.055l-8.918 8.918-1.414-1.414 8.332-8.332v-5.227h-18.5v6.397h8.584v7.742h-8.333V70H52.25v1h17.584v2H52.25v4.336l1.586-1.586H72.25V68.5H57.167V58h7.086L75.5 46.753V18.135h2v29.446L65.081 60h-5.914v6.5H81.5v2h-7.25v9.25H54.664l-2.414 2.414v4.345h32.583V15.491H52.25V20.875zM81.5 82H58.167v-2H81.5V82zM82.5 62.75h-2v-5.875h2V62.75zM80.313 18.135h2v33.217L69.414 64.25H61.5v-2h7.086l11.727-11.727V18.135z"></path><rect x="52.25" y="48.924" fill="none" width="6.584" height="3.742"></rect><path d="M52.25 13.491H13.167v72.018 1h73.666V13.491H52.25zM52.25 48.924h6.584v3.742H52.25V48.924zM84.833 84.509H52.25v-4.345l2.414-2.414H74.25V68.5h7.25v-2H59.167V60h5.914L77.5 47.581V18.135h-2v28.618L64.253 58h-7.086v10.5H72.25v7.25H53.836l-1.586 1.586V73h17.584v-2H52.25v-1h0.251V54.666h8.333v-7.742H52.25v-6.397h18.5v5.227l-8.332 8.332 1.414 1.414 8.918-8.918v-8.055h-20.5v-4.652h20.5V23.552h-2v8.322h-18.5V30h16v-9.448h-2V28h-14v-1.57H62.5v-8.295h-2v6.295h-8.25v-1.555h4.584v-4.74h-2v2.74H52.25v-5.383h32.583V84.509z" fill="#333d46" data-fill-palette-color="accent"></path><rect x="58.167" y="80" width="23.333" height="2" fill="#333d46" data-fill-palette-color="accent"></rect><polygon points="61.5,62.25 61.5,64.25 69.414,64.25 82.313,51.352 82.313,18.135 80.313,18.135 80.313,50.523 68.586,62.25  " fill="#333d46" data-fill-palette-color="accent"></polygon><rect x="80.5" y="56.875" width="2" height="5.875" fill="#333d46" data-fill-palette-color="accent"></rect></g></svg></g></g></svg></g><defs></defs></svg><rect width="395.52" height="247.2" fill="none" stroke="none" visibility="hidden"></rect></g></svg></g></svg>